<?xml version="1.0" encoding="utf-8"?>
<!-- Generator: Adobe Illustrator 24.0.1, SVG Export Plug-In . SVG Version: 6.00 Build 0)  -->
<svg version="1.1" id="Capa_1" xmlns="http://www.w3.org/2000/svg" xmlns:xlink="http://www.w3.org/1999/xlink" x="0px" y="0px"
	 viewBox="0 0 37.3 37.3" style="enable-background:new 0 0 37.3 37.3;" xml:space="preserve">
<style type="text/css">
	.st0{fill:#FFFFFF;}
</style>
<g id="XMLID_11811_">
	<path id="XMLID_11815_" class="st0" d="M28.5,14.3c0.2-0.8,0.3-1.7,0.3-2.5c0-5.8-4.7-10.6-10.6-10.6C12.4,1.3,7.7,6,7.7,11.8
		c0,0.8,0.1,1.7,0.3,2.5c0.3,1.7,0.7,3.1,1.2,4.1c1,2.2,5.4,9.4,7.4,12.6c-2.7,0.3-4,1.5-4,2.6c0,1.3,1.8,2.7,5.7,2.7
		c3.9,0,5.7-1.4,5.7-2.7c0-1.1-1.3-2.3-4-2.6c2-3.3,6.4-10.5,7.4-12.6C27.8,17.4,28.2,16,28.5,14.3z M22.3,33.7
		c-0.1,0.3-1.5,1.1-4,1.1c-2.6,0-4-0.8-4-1.1c0.1-0.3,1.2-0.9,3.3-1.1c0,0,0,0.1,0.1,0.1c0.1,0.2,0.4,0.4,0.7,0.4
		c0.3,0,0.5-0.1,0.7-0.4c0,0,0,0,0.1-0.1C21.1,32.8,22.2,33.4,22.3,33.7z M10.6,17.7c-0.4-0.9-0.8-2.1-1-3.7c0,0,0,0,0-0.1
		c-0.2-0.7-0.3-1.4-0.3-2.1c0-4.9,4-8.9,8.9-8.9c4.9,0,8.9,4,8.9,8.9c0,0.7-0.1,1.4-0.3,2.1c0,0,0,0,0,0.1c-0.3,1.6-0.6,2.8-1,3.7
		c-1,2.2-5.8,10.1-7.6,13C16.4,27.8,11.7,19.9,10.6,17.7z"/>
	<path id="XMLID_11812_" class="st0" d="M18.2,5.9c-3.1,0-5.7,2.5-5.7,5.7c0,3.1,2.5,5.7,5.7,5.7c3.1,0,5.7-2.5,5.7-5.7
		C23.9,8.4,21.4,5.9,18.2,5.9z M14.2,11.5c0-2.2,1.8-4,4-4s4,1.8,4,4s-1.8,4-4,4S14.2,13.7,14.2,11.5z"/>
</g>
</svg>
