<?xml version="1.0" encoding="utf-8"?>
<!-- Generator: Adobe Illustrator 24.0.1, SVG Export Plug-In . SVG Version: 6.00 Build 0)  -->
<svg version="1.1" id="Capa_1" xmlns="http://www.w3.org/2000/svg" xmlns:xlink="http://www.w3.org/1999/xlink" x="0px" y="0px"
	 viewBox="0 0 106.8 67" style="enable-background:new 0 0 106.8 67;" xml:space="preserve">
<style type="text/css">
	.st0{fill:#D48234;}
	.st1{fill:#C95A35;}
	.st2{fill:#C44034;}
</style>
<g>
	<path class="st0" d="M23.6,11.1l9.4,0c1.1,0,2,0.9,2,2l0,0.1c0,1.1-0.9,2-2,2l-9.4,0c-1.1,0-2-0.9-2-2l0-0.1
		C21.5,12,22.5,11.1,23.6,11.1z"/>
	<path class="st1" d="M53.9,45c2.2,0.1,4.4,0,6.6,0c3-0.1,3-4.3-0.1-4.3c-14.2,0-28.4,0-42.6,0c-2.4,0-3-2.9-1-4
		c0.1-0.1,0.3-0.1,0.4-0.1c0.3,0,0.5-0.1,0.8-0.1c11.6,0,23.3,0,34.9,0c1,0,1.7-0.1,2.2-0.4c1.7-1.1,0.7-3.8-1.5-3.8
		c-6.7,0-13.5,0-20.2,0c-2.2,0-2.9-4.1,0.6-4.2c3.1-0.1,6.3-0.1,9.4,0c2.1,0,4-0.3,3.4-2.9c-0.2-1-1.2-1.4-2.2-1.4
		c-6.3,0-12.6,0-18.9,0c-3.7,0-3.3-4.2-0.9-4.2c8.5,0,17.3,0.4,25.8-0.1c0.2,0,0.3-0.1,0.4-0.2c1.4-1.1,1.3-3.9-0.9-3.9
		c-2,0-7.3,0.5-8.9-0.3c-1.7-0.8-1.3-3.9,1.1-3.9c4.5,0,9,0,13.5,0c3,0,5.2,0.2,6.5,0.6c4,1.3,6.4,4.3,7.4,8.9c0,0.2,0,0.3-0.2,0.4
		L63,23.4c-0.2,0.1-0.3,0-0.3-0.2C62,20.8,61.5,18,58.4,18c-2.2,0-3.7,1.5-3.9,3.6C54.3,24.3,57,27,59,28.8
		c5.7,5.1,11.9,9.3,10.6,18.3c-0.8,5.2-3.3,8.5-7.7,9.9c-1.4,0.5-3.8,0.7-7.2,0.7c-4.2,0-8.5,0-12.7,0c-2.4,0-2.9-4,0.9-4.1
		c3.3-0.1,6.6-0.1,9.8-0.1c1.9,0,2.8-4.1-0.8-4.1c-7.8-0.1-15.6-0.1-23.4-0.1c-4.1,0-3.5-4.3-0.3-4.2C36.8,45.3,45.3,44.8,53.9,45z"
		/>
	<path class="st2" d="M76.6,11.1c9,0.4,17,5.5,20.7,13.7c7,15.6-4.4,32.4-21,32.9c-0.1,0-0.2-0.1-0.2-0.2c0,0,0,0,0,0V49
		c0-0.1,0.1-0.2,0.2-0.2c18.8-1.7,18.4-27.5,0.3-28.7c-0.3,0-0.5-0.2-0.5-0.5v-8C76.1,11.3,76.3,11.1,76.6,11.1z"/>
	<path class="st0" d="M13.6,19.6l5.2,0c1.1,0,2,0.9,2,2l0,0.2c0,1.1-0.9,2-2,2l-5.2,0c-1.1,0-2-0.9-2-2l0-0.2
		C11.6,20.5,12.5,19.6,13.6,19.6z"/>
	<path class="st2" d="M76.9,32.5c0.9,0.5,1.4,1.3,1.3,2.4c0,0.2-0.1,0.3-0.2,0.4l-1.1,1.1c-0.1,0.1-0.2,0.2-0.2,0.4l-0.1,1.8
		c0,0.2-0.1,0.3-0.3,0.3l-0.7,0c-0.2,0-0.3-0.1-0.2-0.3c0.3-1.3,0-2.3-1-2.9c-0.1-0.1-0.2-0.2-0.3-0.4c-0.3-1.4,0.1-2.4,1.4-3
		c0.1-0.1,0.2-0.2,0.2-0.3c0-3,0.1-6,0.4-9c0.1-0.8,0.1-0.8,0.2,0c0.1,2.6,0.2,5.3,0.2,7.9c0,0.4,0.1,0.8,0.2,1.2
		C76.7,32.3,76.8,32.4,76.9,32.5z"/>
	<path class="st0" d="M17.6,27.9h8c1.1,0,2,0.9,2,2v0.2c0,1.1-0.9,2-2,2h-8c-1.1,0-2-0.9-2-2V30C15.6,28.8,16.5,27.9,17.6,27.9z"/>
	<path class="st0" d="M7.7,36.5l3.7,0c1.1,0,2,0.9,2,2l0,0.2c0,1.1-0.9,2-2,2l-3.7,0c-1.1,0-2-0.9-2-2l0-0.2
		C5.7,37.4,6.6,36.5,7.7,36.5z"/>
	<path class="st0" d="M19.4,45.3l2.3,0c1.1,0,2,0.8,2,1.9l0,0.3c0,1.1-0.8,2-1.9,2l-2.3,0c-1.1,0-2-0.8-2-1.9l0-0.3
		C17.5,46.2,18.3,45.3,19.4,45.3z"/>
	<ellipse transform="matrix(1 -8.726535e-03 8.726535e-03 1 -0.4838 0.304)" class="st0" cx="34.6" cy="55.6" rx="3.2" ry="2.2"/>
</g>
</svg>
